<svg xmlns="http://www.w3.org/2000/svg" xmlns:xlink="http://www.w3.org/1999/xlink" width="611" zoomAndPan="magnify" viewBox="0 0 458.25 170.249993" height="227" preserveAspectRatio="xMidYMid meet" version="1.2"><defs><clipPath id="75b1ff9ee5"><path d="M 39.851562 68 L 59 68 L 59 87 L 39.851562 87 Z M 39.851562 68 "/></clipPath><clipPath id="3484c1c5eb"><path d="M 17.582031 91 L 36 91 L 36 109 L 17.582031 109 Z M 17.582031 91 "/></clipPath><clipPath id="23cd33266a"><path d="M 25 101 L 34 101 L 34 121.339844 L 25 121.339844 Z M 25 101 "/></clipPath><clipPath id="215324e0be"><path d="M 24.730469 72.296875 L 28.828125 72.296875 L 28.828125 76.398438 L 24.730469 76.398438 Z M 24.730469 72.296875 "/></clipPath><clipPath id="cb81dbdb5a"><path d="M 26.78125 72.296875 C 25.648438 72.296875 24.730469 73.214844 24.730469 74.347656 C 24.730469 75.480469 25.648438 76.398438 26.78125 76.398438 C 27.910156 76.398438 28.828125 75.480469 28.828125 74.347656 C 28.828125 73.214844 27.910156 72.296875 26.78125 72.296875 Z M 26.78125 72.296875 "/></clipPath><clipPath id="6e598fcf50"><path d="M 47.480469 117.261719 L 51.582031 117.261719 L 51.582031 121.363281 L 47.480469 121.363281 Z M 47.480469 117.261719 "/></clipPath><clipPath id="24d603c78d"><path d="M 49.53125 117.261719 C 48.398438 117.261719 47.480469 118.179688 47.480469 119.3125 C 47.480469 120.445312 48.398438 121.363281 49.53125 121.363281 C 50.664062 121.363281 51.582031 120.445312 51.582031 119.3125 C 51.582031 118.179688 50.664062 117.261719 49.53125 117.261719 Z M 49.53125 117.261719 "/></clipPath><clipPath id="d0d44dd1dd"><path d="M 63.335938 92.953125 L 67.4375 92.953125 L 67.4375 97.054688 L 63.335938 97.054688 Z M 63.335938 92.953125 "/></clipPath><clipPath id="ef0f499aa3"><path d="M 65.386719 92.953125 C 64.253906 92.953125 63.335938 93.871094 63.335938 95.003906 C 63.335938 96.136719 64.253906 97.054688 65.386719 97.054688 C 66.519531 97.054688 67.4375 96.136719 67.4375 95.003906 C 67.4375 93.871094 66.519531 92.953125 65.386719 92.953125 Z M 65.386719 92.953125 "/></clipPath><clipPath id="0a7f8ff58e"><path d="M 63.335938 10 L 117 10 L 117 81 L 63.335938 81 Z M 63.335938 10 "/></clipPath><clipPath id="685fde8ecf"><path d="M 111 0 L 141.742188 0 L 141.742188 47 L 111 47 Z M 111 0 "/></clipPath></defs><g id="31ee8ebaad"><g clip-rule="nonzero" clip-path="url(#75b1ff9ee5)"><path style=" stroke:none;fill-rule:nonzero;fill:#f68f40;fill-opacity:1;" d="M 57.824219 77.738281 C 57.28125 76.988281 57.195312 76.132812 56.089844 76.863281 C 54.796875 77.722656 53.527344 78.625 52.304688 79.582031 C 53.058594 77.476562 53.984375 75.449219 54.921875 73.417969 C 55.410156 72.601562 54.859375 72.230469 54.097656 72.027344 C 53.445312 71.8125 52.78125 71.644531 52.128906 71.425781 C 51.324219 71.136719 51.140625 72.191406 50.96875 72.738281 C 50.480469 74.53125 49.765625 76.25 49.25 78.03125 C 48.71875 74.988281 48.300781 71.894531 47.5625 68.902344 C 46.867188 67.914062 45.984375 69.222656 45.253906 69.535156 C 44.527344 69.910156 44.519531 70.160156 44.71875 70.910156 C 45.261719 74.121094 46.265625 77.226562 46.980469 80.402344 C 45.039062 80.367188 43.109375 80.125 41.171875 80.070312 C 40.578125 80.019531 40.394531 80.472656 40.34375 80.972656 C 40.257812 81.636719 40.046875 82.277344 39.933594 82.9375 C 39.863281 83.980469 41.226562 83.550781 41.871094 83.550781 C 42.664062 83.476562 43.460938 83.4375 44.257812 83.425781 C 46.28125 83.332031 48.273438 83.707031 50.261719 83.953125 C 51.910156 85.046875 53.800781 85.898438 55.539062 86.886719 C 56.226562 87.089844 56.710938 86.328125 57.175781 85.953125 C 57.59375 85.457031 58.929688 84.792969 58 84.148438 C 56.710938 83.375 55.316406 82.785156 54.007812 82.050781 C 55.488281 81.476562 56.953125 80.859375 58.414062 80.234375 C 59.257812 79.75 58.199219 78.28125 57.824219 77.738281 Z M 57.824219 77.738281 "/></g><path style=" stroke:none;fill-rule:nonzero;fill:#000000;fill-opacity:1;" d="M 50.082031 83.160156 C 47.925781 83.046875 44.882812 81.804688 47.070312 85.144531 C 46.558594 91.792969 45.722656 98.40625 44.785156 105.003906 C 44.761719 105.203125 44.878906 105.386719 45.046875 105.484375 C 45.109375 105.597656 45.222656 105.695312 45.40625 105.746094 C 46.605469 105.992188 46.738281 105.359375 46.917969 104.386719 C 47.085938 103.574219 47.238281 102.753906 47.386719 101.9375 C 48.355469 96.417969 49.25 90.890625 50.222656 85.375 C 51.03125 84.609375 51.964844 83.097656 50.082031 83.160156 Z M 50.082031 83.160156 "/><g clip-rule="nonzero" clip-path="url(#3484c1c5eb)"><path style=" stroke:none;fill-rule:nonzero;fill:#f7a9cc;fill-opacity:1;" d="M 35.601562 98.519531 C 35.449219 97.894531 35.300781 97.265625 35.164062 96.636719 C 35.105469 96.082031 34.730469 95.839844 34.203125 96.019531 C 32.34375 96.664062 30.671875 97.769531 28.867188 98.558594 C 29.972656 96.914062 31.28125 95.421875 32.445312 93.820312 C 32.976562 92.972656 31.578125 92.453125 31.066406 92.011719 C 30.804688 91.851562 30.605469 91.582031 30.316406 91.46875 C 29.65625 91.339844 29.320312 92.152344 28.988281 92.589844 C 27.925781 94.367188 26.925781 96.179688 25.917969 97.984375 C 25.464844 96.046875 25.320312 94.050781 24.910156 92.105469 C 24.730469 90.722656 22.386719 92.113281 21.625 92.347656 C 20.433594 92.816406 22.296875 95.71875 22.578125 96.566406 C 23.0625 97.675781 23.511719 98.800781 24.050781 99.886719 C 22.519531 99.894531 21 99.632812 19.464844 99.640625 C 18.839844 99.609375 18.203125 99.488281 18.15625 100.328125 C 18.132812 101.046875 17.601562 102.710938 18.613281 102.90625 C 20.335938 102.84375 22.054688 102.742188 23.769531 102.609375 C 23.089844 103.722656 22.390625 104.824219 21.742188 105.953125 C 20.660156 107.839844 21 108.179688 23.082031 108.269531 C 23.828125 108.363281 23.953125 107.460938 24.234375 106.964844 C 24.800781 105.640625 25.40625 104.335938 26.078125 103.0625 C 26.738281 102.957031 27.34375 103.015625 27.984375 102.734375 C 29.816406 103.59375 31.511719 104.679688 33.277344 105.667969 C 34.042969 106.019531 34.320312 104.59375 34.671875 104.132812 C 35.285156 103.300781 34.027344 102.929688 33.449219 102.660156 C 32.0625 102.039062 30.652344 101.464844 29.289062 100.792969 C 30.578125 100.519531 31.875 100.285156 33.160156 99.992188 C 34.046875 99.707031 35.941406 99.949219 35.601562 98.519531 Z M 35.601562 98.519531 "/></g><g clip-rule="nonzero" clip-path="url(#23cd33266a)"><path style=" stroke:none;fill-rule:nonzero;fill:#000000;fill-opacity:1;" d="M 33.125 120.152344 C 31.621094 114.730469 30.132812 109.308594 28.535156 103.914062 C 28.832031 103.371094 29.515625 101.324219 28.195312 101.839844 C 27.460938 102.164062 24.847656 102.40625 25.214844 103.503906 C 25.527344 103.898438 25.8125 104.351562 26.171875 104.703125 C 27.886719 109.753906 29.1875 114.9375 30.878906 119.996094 C 31.234375 121.089844 31.46875 121.34375 32.558594 120.824219 C 32.863281 120.71875 33.234375 120.59375 33.125 120.152344 Z M 33.125 120.152344 "/></g><g clip-rule="nonzero" clip-path="url(#215324e0be)"><g clip-rule="nonzero" clip-path="url(#cb81dbdb5a)"><path style=" stroke:none;fill-rule:nonzero;fill:#efcf37;fill-opacity:1;" d="M 24.730469 72.296875 L 28.828125 72.296875 L 28.828125 76.398438 L 24.730469 76.398438 Z M 24.730469 72.296875 "/></g></g><g clip-rule="nonzero" clip-path="url(#6e598fcf50)"><g clip-rule="nonzero" clip-path="url(#24d603c78d)"><path style=" stroke:none;fill-rule:nonzero;fill:#fddfd3;fill-opacity:1;" d="M 47.480469 117.261719 L 51.582031 117.261719 L 51.582031 121.363281 L 47.480469 121.363281 Z M 47.480469 117.261719 "/></g></g><g clip-rule="nonzero" clip-path="url(#d0d44dd1dd)"><g clip-rule="nonzero" clip-path="url(#ef0f499aa3)"><path style=" stroke:none;fill-rule:nonzero;fill:#efcf37;fill-opacity:1;" d="M 63.335938 92.953125 L 67.4375 92.953125 L 67.4375 97.054688 L 63.335938 97.054688 Z M 63.335938 92.953125 "/></g></g><g clip-rule="nonzero" clip-path="url(#0a7f8ff58e)"><path style=" stroke:none;fill-rule:evenodd;fill:#ff6666;fill-opacity:1;" d="M 116.449219 53.949219 C 118.890625 58.148438 111.527344 66.878906 100.050781 73.511719 C 88.53125 80.144531 77.25 82.101562 74.859375 77.949219 L 69.023438 43.882812 L 63.335938 10.679688 C 63.335938 10.535156 63.382812 10.4375 63.480469 10.34375 C 63.621094 10.296875 63.765625 10.296875 63.863281 10.390625 L 89.820312 31.910156 Z M 116.449219 53.949219 "/></g><path style=" stroke:none;fill-rule:evenodd;fill:#f9d044;fill-opacity:1;" d="M 92.640625 60.726562 C 102.824219 54.855469 112.433594 52.425781 114.109375 55.285156 C 115.78125 58.195312 108.847656 65.257812 98.667969 71.175781 C 88.484375 77.042969 78.875 79.429688 77.199219 76.566406 C 75.527344 73.703125 82.460938 66.59375 92.640625 60.726562 Z M 92.640625 60.726562 "/><path style=" stroke:none;fill-rule:nonzero;fill:#f9ffff;fill-opacity:1;" d="M 66.253906 27.851562 L 72.324219 17.40625 L 74.09375 18.835938 L 66.875 31.335938 Z M 66.253906 27.851562 "/><path style=" stroke:none;fill-rule:nonzero;fill:#f9ffff;fill-opacity:1;" d="M 69.503906 46.746094 L 81.886719 25.324219 L 83.65625 26.804688 L 70.125 50.230469 Z M 69.503906 46.746094 "/><path style=" stroke:none;fill-rule:nonzero;fill:#f9ffff;fill-opacity:1;" d="M 72.753906 65.6875 L 91.496094 33.292969 L 93.265625 34.722656 L 73.328125 69.171875 Z M 72.753906 65.6875 "/><path style=" stroke:none;fill-rule:nonzero;fill:#f9ffff;fill-opacity:1;" d="M 88.195312 63.492188 L 101.105469 41.210938 L 102.824219 42.691406 L 92.261719 60.917969 C 90.824219 61.773438 89.488281 62.632812 88.195312 63.492188 Z M 88.195312 63.492188 "/><g clip-rule="nonzero" clip-path="url(#685fde8ecf)"><path style=" stroke:none;fill-rule:evenodd;fill:#79d1d1;fill-opacity:1;" d="M 141.742188 40.640625 C 141.742188 43.691406 134.90625 46.175781 126.539062 46.175781 C 118.125 46.175781 111.335938 43.691406 111.335938 40.640625 L 118.9375 20.125 L 126.347656 0.179688 C 126.347656 0.0859375 126.441406 0.0390625 126.539062 0.0390625 C 126.585938 0.0390625 126.679688 0.0859375 126.730469 0.179688 L 134.140625 20.125 Z M 141.742188 40.640625 "/></g><path style=" stroke:none;fill-rule:evenodd;fill:#f9d044;fill-opacity:1;" d="M 126.539062 36.824219 C 133.949219 36.824219 139.972656 38.539062 139.972656 40.640625 C 139.972656 42.738281 133.949219 44.410156 126.539062 44.410156 C 119.078125 44.410156 113.054688 42.738281 113.054688 40.640625 C 113.054688 38.539062 119.078125 36.824219 126.539062 36.824219 Z M 126.539062 36.824219 "/><path style=" stroke:none;fill-rule:nonzero;fill:#f9ffff;fill-opacity:1;" d="M 122.523438 10.488281 L 129.121094 6.671875 L 129.644531 8.054688 L 121.710938 12.585938 Z M 122.523438 10.488281 "/><path style=" stroke:none;fill-rule:nonzero;fill:#f9ffff;fill-opacity:1;" d="M 118.265625 21.890625 L 131.84375 14.066406 L 132.371094 15.402344 L 117.503906 23.988281 Z M 118.265625 21.890625 "/><path style=" stroke:none;fill-rule:nonzero;fill:#f9ffff;fill-opacity:1;" d="M 114.058594 33.246094 L 134.617188 21.414062 L 135.09375 22.796875 L 113.296875 35.34375 Z M 114.058594 33.246094 "/><path style=" stroke:none;fill-rule:nonzero;fill:#f9ffff;fill-opacity:1;" d="M 123.191406 36.917969 L 137.34375 28.808594 L 137.820312 30.144531 L 126.25 36.824219 C 125.199219 36.824219 124.195312 36.871094 123.191406 36.917969 Z M 123.191406 36.917969 "/><g style="fill:#e14f19;fill-opacity:1;"><g transform="translate(145.064706, 120.863736)"><path style="stroke:none" d="M 7.5 -4.328125 L 7.5 -4.359375 L 7.515625 -4.328125 C 7.515625 -4.328125 7.507812 -4.328125 7.5 -4.328125 Z M 9.9375 -5.609375 C 10.070312 -5.410156 10.101562 -5.191406 10.03125 -4.953125 C 10 -4.753906 9.910156 -4.601562 9.765625 -4.5 C 9.617188 -4.40625 9.457031 -4.347656 9.28125 -4.328125 C 9.050781 -4.316406 8.804688 -4.3125 8.546875 -4.3125 C 8.285156 -4.3125 8.03125 -4.316406 7.78125 -4.328125 C 7.695312 -4.328125 7.601562 -4.335938 7.5 -4.359375 L 7.5 -4.375 L 7.5 -4.359375 C 7.28125 -4.390625 7.066406 -4.457031 6.859375 -4.5625 C 6.660156 -4.664062 6.515625 -4.800781 6.421875 -4.96875 C 6.335938 -5.144531 6.359375 -5.347656 6.484375 -5.578125 C 6.554688 -5.679688 6.640625 -5.769531 6.734375 -5.84375 C 6.828125 -5.925781 6.929688 -5.976562 7.046875 -6 C 7.117188 -6 7.171875 -6.003906 7.203125 -6.015625 C 7.210938 -6.410156 7.21875 -6.8125 7.21875 -7.21875 C 7.21875 -7.625 7.21875 -8.035156 7.21875 -8.453125 C 7.21875 -8.660156 7.210938 -8.867188 7.203125 -9.078125 C 7.203125 -9.296875 7.203125 -9.507812 7.203125 -9.71875 C 7.179688 -9.800781 7.171875 -9.914062 7.171875 -10.0625 C 7.171875 -10.238281 7.164062 -10.410156 7.15625 -10.578125 C 7.15625 -10.753906 7.144531 -10.925781 7.125 -11.09375 C 7.0625 -11.46875 6.914062 -11.742188 6.6875 -11.921875 C 6.507812 -12.066406 6.238281 -12.175781 5.875 -12.25 C 5.175781 -12.351562 4.539062 -12.195312 3.96875 -11.78125 C 3.53125 -11.4375 3.285156 -11.007812 3.234375 -10.5 L 3.234375 -10.140625 C 3.234375 -10.117188 3.234375 -10.101562 3.234375 -10.09375 C 3.234375 -8.144531 3.238281 -6.203125 3.25 -4.265625 L 3.421875 -4.265625 C 3.671875 -4.242188 3.875 -4.148438 4.03125 -3.984375 C 4.195312 -3.828125 4.28125 -3.632812 4.28125 -3.40625 C 4.300781 -3.175781 4.222656 -2.972656 4.046875 -2.796875 C 3.878906 -2.609375 3.671875 -2.515625 3.421875 -2.515625 L 1.59375 -2.578125 C 1.363281 -2.585938 1.164062 -2.671875 1 -2.828125 C 0.84375 -2.984375 0.765625 -3.179688 0.765625 -3.421875 C 0.742188 -3.648438 0.820312 -3.859375 1 -4.046875 C 1.144531 -4.203125 1.328125 -4.289062 1.546875 -4.3125 C 1.523438 -5.375 1.515625 -6.335938 1.515625 -7.203125 C 1.515625 -7.691406 1.507812 -8.175781 1.5 -8.65625 C 1.5 -9.132812 1.503906 -9.617188 1.515625 -10.109375 C 1.503906 -10.304688 1.503906 -10.492188 1.515625 -10.671875 C 1.515625 -13.484375 1.554688 -16.300781 1.640625 -19.125 L 1.5625 -19.09375 C 1.351562 -19.082031 1.164062 -19.15625 1 -19.3125 C 0.800781 -19.476562 0.695312 -19.691406 0.6875 -19.953125 C 0.664062 -20.203125 0.742188 -20.40625 0.921875 -20.5625 C 1.109375 -20.726562 1.304688 -20.820312 1.515625 -20.84375 C 1.910156 -20.851562 2.273438 -20.867188 2.609375 -20.890625 C 2.941406 -20.921875 3.269531 -20.9375 3.59375 -20.9375 C 3.84375 -20.9375 4.046875 -20.851562 4.203125 -20.6875 C 4.367188 -20.519531 4.460938 -20.316406 4.484375 -20.078125 C 4.484375 -19.867188 4.398438 -19.671875 4.234375 -19.484375 C 4.066406 -19.304688 3.863281 -19.21875 3.625 -19.21875 C 3.5625 -19.21875 3.476562 -19.210938 3.375 -19.203125 C 3.363281 -18.660156 3.347656 -18.140625 3.328125 -17.640625 C 3.316406 -17.140625 3.3125 -16.65625 3.3125 -16.1875 C 3.289062 -15.738281 3.273438 -15.28125 3.265625 -14.8125 C 3.253906 -14.351562 3.25 -13.875 3.25 -13.375 C 3.78125 -13.695312 4.375 -13.890625 5.03125 -13.953125 C 5.6875 -14.015625 6.300781 -13.941406 6.875 -13.734375 C 7.851562 -13.378906 8.472656 -12.71875 8.734375 -11.75 C 8.804688 -11.488281 8.847656 -11.226562 8.859375 -10.96875 C 8.878906 -10.707031 8.890625 -10.445312 8.890625 -10.1875 L 8.90625 -9.9375 C 8.90625 -9.695312 8.910156 -9.453125 8.921875 -9.203125 C 8.929688 -8.960938 8.9375 -8.726562 8.9375 -8.5 C 8.957031 -8.070312 8.960938 -7.648438 8.953125 -7.234375 C 8.941406 -6.816406 8.9375 -6.421875 8.9375 -6.046875 C 9.082031 -6.046875 9.238281 -6.03125 9.40625 -6 C 9.550781 -5.976562 9.664062 -5.921875 9.75 -5.828125 C 9.84375 -5.734375 9.90625 -5.660156 9.9375 -5.609375 Z M 9.9375 -5.609375 "/></g></g><g style="fill:#e14f19;fill-opacity:1;"><g transform="translate(159.265758, 120.863736)"><path style="stroke:none" d="M 7.15625 -3.546875 C 7.3125 -3.398438 7.398438 -3.195312 7.421875 -2.9375 C 7.429688 -2.707031 7.347656 -2.503906 7.171875 -2.328125 C 7.078125 -2.222656 6.972656 -2.15625 6.859375 -2.125 C 6.753906 -2.09375 6.664062 -2.078125 6.59375 -2.078125 L 5.484375 -1.953125 C 5.460938 -1.953125 5.445312 -1.953125 5.4375 -1.953125 C 5.300781 -1.953125 5.1875 -1.976562 5.09375 -2.03125 C 5 -2.09375 4.925781 -2.148438 4.875 -2.203125 C 4.707031 -2.347656 4.617188 -2.550781 4.609375 -2.8125 C 4.585938 -3.039062 4.664062 -3.242188 4.84375 -3.421875 C 4.925781 -3.503906 5.007812 -3.5625 5.09375 -3.59375 C 5.175781 -3.625 5.257812 -3.648438 5.34375 -3.671875 C 5.34375 -3.703125 5.34375 -3.726562 5.34375 -3.75 C 4.320312 -3.457031 3.359375 -3.554688 2.453125 -4.046875 C 1.941406 -4.304688 1.535156 -4.675781 1.234375 -5.15625 C 0.929688 -5.632812 0.78125 -6.144531 0.78125 -6.6875 C 0.78125 -7.238281 0.925781 -7.753906 1.21875 -8.234375 C 1.519531 -8.722656 1.921875 -9.113281 2.421875 -9.40625 C 2.898438 -9.675781 3.4375 -9.820312 4.03125 -9.84375 C 4.625 -9.875 5.175781 -9.789062 5.6875 -9.59375 C 5.6875 -9.78125 5.6875 -9.960938 5.6875 -10.140625 C 5.6875 -10.316406 5.675781 -10.503906 5.65625 -10.703125 C 5.65625 -10.703125 5.644531 -10.722656 5.625 -10.765625 C 5.625 -10.785156 5.625 -10.8125 5.625 -10.84375 C 5.625 -10.863281 5.625 -10.875 5.625 -10.875 L 5.578125 -10.96875 C 5.367188 -11.320312 5.0625 -11.578125 4.65625 -11.734375 C 4.25 -11.859375 3.84375 -11.828125 3.4375 -11.640625 C 3.039062 -11.453125 2.769531 -11.160156 2.625 -10.765625 C 2.519531 -10.546875 2.367188 -10.378906 2.171875 -10.265625 C 1.984375 -10.160156 1.78125 -10.140625 1.5625 -10.203125 C 1.320312 -10.273438 1.132812 -10.429688 1 -10.671875 C 0.90625 -10.890625 0.898438 -11.101562 0.984375 -11.3125 C 1.285156 -12.113281 1.816406 -12.71875 2.578125 -13.125 C 3.335938 -13.53125 4.128906 -13.628906 4.953125 -13.421875 C 5.472656 -13.285156 5.976562 -13.015625 6.46875 -12.609375 C 6.957031 -12.203125 7.242188 -11.703125 7.328125 -11.109375 C 7.367188 -10.734375 7.390625 -10.359375 7.390625 -9.984375 C 7.390625 -9.609375 7.390625 -9.234375 7.390625 -8.859375 L 7.390625 -8.734375 C 7.347656 -6.972656 7.234375 -5.269531 7.046875 -3.625 C 7.078125 -3.601562 7.113281 -3.578125 7.15625 -3.546875 Z M 5.515625 -5.734375 C 5.546875 -6.234375 5.578125 -6.769531 5.609375 -7.34375 C 5.609375 -7.363281 5.609375 -7.394531 5.609375 -7.4375 L 5.578125 -7.5 C 5.578125 -7.5 5.570312 -7.519531 5.5625 -7.5625 L 5.5625 -7.59375 C 5.5625 -7.601562 5.546875 -7.625 5.515625 -7.65625 L 5.515625 -7.6875 C 5.492188 -7.707031 5.457031 -7.738281 5.40625 -7.78125 C 5.375 -7.8125 5.359375 -7.828125 5.359375 -7.828125 L 5.34375 -7.859375 C 5.300781 -7.878906 5.273438 -7.894531 5.265625 -7.90625 C 5.210938 -7.925781 5.171875 -7.953125 5.140625 -7.984375 L 5.125 -7.984375 C 4.96875 -8.035156 4.796875 -8.082031 4.609375 -8.125 L 4.546875 -8.125 C 4.515625 -8.125 4.476562 -8.132812 4.4375 -8.15625 C 4.363281 -8.15625 4.296875 -8.15625 4.234375 -8.15625 C 4.148438 -8.15625 4.066406 -8.144531 3.984375 -8.125 L 3.84375 -8.109375 C 3.757812 -8.085938 3.675781 -8.070312 3.59375 -8.0625 C 3.5625 -8.039062 3.53125 -8.019531 3.5 -8 L 3.453125 -8 C 3.335938 -7.9375 3.222656 -7.863281 3.109375 -7.78125 C 3.109375 -7.78125 3.082031 -7.765625 3.03125 -7.734375 L 3.015625 -7.71875 C 2.984375 -7.695312 2.945312 -7.671875 2.90625 -7.640625 C 2.875 -7.585938 2.828125 -7.53125 2.765625 -7.46875 L 2.75 -7.4375 C 2.726562 -7.40625 2.707031 -7.375 2.6875 -7.34375 C 2.675781 -7.3125 2.644531 -7.253906 2.59375 -7.171875 C 2.59375 -7.160156 2.59375 -7.144531 2.59375 -7.125 C 2.582031 -7.09375 2.566406 -7.0625 2.546875 -7.03125 C 2.546875 -6.976562 2.535156 -6.921875 2.515625 -6.859375 L 2.515625 -6.8125 C 2.503906 -6.769531 2.5 -6.734375 2.5 -6.703125 C 2.5 -6.671875 2.503906 -6.625 2.515625 -6.5625 L 2.515625 -6.46875 C 2.535156 -6.445312 2.546875 -6.410156 2.546875 -6.359375 C 2.546875 -6.359375 2.554688 -6.335938 2.578125 -6.296875 C 2.585938 -6.265625 2.59375 -6.238281 2.59375 -6.21875 C 2.625 -6.15625 2.65625 -6.109375 2.6875 -6.078125 C 2.6875 -6.054688 2.695312 -6.035156 2.71875 -6.015625 C 2.738281 -6.003906 2.753906 -5.988281 2.765625 -5.96875 C 2.828125 -5.894531 2.882812 -5.832031 2.9375 -5.78125 C 2.96875 -5.75 2.992188 -5.722656 3.015625 -5.703125 C 3.054688 -5.671875 3.09375 -5.640625 3.125 -5.609375 C 3.164062 -5.585938 3.207031 -5.570312 3.25 -5.5625 C 3.289062 -5.539062 3.332031 -5.523438 3.375 -5.515625 C 3.40625 -5.492188 3.429688 -5.472656 3.453125 -5.453125 C 3.546875 -5.421875 3.648438 -5.390625 3.765625 -5.359375 C 3.867188 -5.347656 3.941406 -5.34375 3.984375 -5.34375 C 4.140625 -5.320312 4.253906 -5.3125 4.328125 -5.3125 C 4.359375 -5.3125 4.410156 -5.320312 4.484375 -5.34375 C 4.515625 -5.34375 4.554688 -5.34375 4.609375 -5.34375 C 4.722656 -5.351562 4.835938 -5.382812 4.953125 -5.4375 C 5.046875 -5.445312 5.117188 -5.472656 5.171875 -5.515625 C 5.285156 -5.554688 5.398438 -5.617188 5.515625 -5.703125 Z M 5.515625 -5.734375 "/></g></g><g style="fill:#e14f19;fill-opacity:1;"><g transform="translate(171.165498, 120.863736)"><path style="stroke:none" d="M 8.90625 -11.5 C 9.300781 -10.769531 9.457031 -9.957031 9.375 -9.0625 C 9.289062 -8.164062 9 -7.375 8.5 -6.6875 C 7.5625 -5.445312 6.269531 -4.867188 4.625 -4.953125 C 4.394531 -4.960938 4.132812 -4.992188 3.84375 -5.046875 C 3.5625 -5.097656 3.273438 -5.1875 2.984375 -5.3125 C 3.035156 -3.582031 3.101562 -1.878906 3.1875 -0.203125 C 3.21875 -0.203125 3.238281 -0.203125 3.25 -0.203125 C 3.5 -0.179688 3.703125 -0.09375 3.859375 0.0625 C 4.015625 0.21875 4.097656 0.410156 4.109375 0.640625 C 4.109375 0.878906 4.019531 1.085938 3.84375 1.265625 C 3.675781 1.429688 3.476562 1.515625 3.25 1.515625 C 3.238281 1.515625 3.234375 1.515625 3.234375 1.515625 C 2.660156 1.484375 2.085938 1.46875 1.515625 1.46875 C 1.285156 1.488281 1.082031 1.414062 0.90625 1.25 C 0.738281 1.082031 0.648438 0.878906 0.640625 0.640625 C 0.640625 0.410156 0.71875 0.210938 0.875 0.046875 C 1.03125 -0.128906 1.226562 -0.226562 1.46875 -0.25 C 1.414062 -1.125 1.375 -1.976562 1.34375 -2.8125 C 1.21875 -6.207031 1.160156 -9.632812 1.171875 -13.09375 L 1.15625 -13.09375 C 0.925781 -13.09375 0.726562 -13.175781 0.5625 -13.34375 C 0.394531 -13.507812 0.304688 -13.710938 0.296875 -13.953125 C 0.273438 -14.179688 0.351562 -14.378906 0.53125 -14.546875 C 0.695312 -14.742188 0.90625 -14.84375 1.15625 -14.84375 L 2.859375 -14.84375 C 3.085938 -14.84375 3.285156 -14.757812 3.453125 -14.59375 C 3.617188 -14.425781 3.707031 -14.222656 3.71875 -13.984375 C 3.71875 -13.753906 3.640625 -13.554688 3.484375 -13.390625 C 3.316406 -13.210938 3.117188 -13.113281 2.890625 -13.09375 C 2.890625 -13.082031 2.890625 -13.0625 2.890625 -13.03125 C 2.890625 -13.007812 2.890625 -12.984375 2.890625 -12.953125 C 3.523438 -13.378906 4.234375 -13.597656 5.015625 -13.609375 C 5.835938 -13.640625 6.601562 -13.457031 7.3125 -13.0625 C 8.03125 -12.675781 8.5625 -12.15625 8.90625 -11.5 Z M 7.265625 -7.9375 C 7.515625 -8.351562 7.65625 -8.851562 7.6875 -9.4375 C 7.71875 -10.03125 7.5625 -10.550781 7.21875 -11 C 6.957031 -11.320312 6.601562 -11.5625 6.15625 -11.71875 C 5.707031 -11.882812 5.253906 -11.9375 4.796875 -11.875 C 4.367188 -11.820312 3.957031 -11.640625 3.5625 -11.328125 C 3.175781 -11.023438 2.957031 -10.628906 2.90625 -10.140625 C 2.90625 -10.117188 2.898438 -10.09375 2.890625 -10.0625 C 2.898438 -9.65625 2.90625 -9.25 2.90625 -8.84375 C 2.90625 -8.445312 2.914062 -8.050781 2.9375 -7.65625 C 2.9375 -7.625 2.945312 -7.601562 2.96875 -7.59375 C 3.03125 -7.375 3.132812 -7.210938 3.28125 -7.109375 C 3.425781 -7.003906 3.546875 -6.925781 3.640625 -6.875 C 4.035156 -6.71875 4.507812 -6.644531 5.0625 -6.65625 C 5.550781 -6.675781 5.960938 -6.785156 6.296875 -6.984375 C 6.703125 -7.191406 7.023438 -7.507812 7.265625 -7.9375 Z M 7.265625 -7.9375 "/></g></g><g style="fill:#e14f19;fill-opacity:1;"><g transform="translate(184.632088, 120.863736)"><path style="stroke:none" d="M 8.90625 -11.5 C 9.300781 -10.769531 9.457031 -9.957031 9.375 -9.0625 C 9.289062 -8.164062 9 -7.375 8.5 -6.6875 C 7.5625 -5.445312 6.269531 -4.867188 4.625 -4.953125 C 4.394531 -4.960938 4.132812 -4.992188 3.84375 -5.046875 C 3.5625 -5.097656 3.273438 -5.1875 2.984375 -5.3125 C 3.035156 -3.582031 3.101562 -1.878906 3.1875 -0.203125 C 3.21875 -0.203125 3.238281 -0.203125 3.25 -0.203125 C 3.5 -0.179688 3.703125 -0.09375 3.859375 0.0625 C 4.015625 0.21875 4.097656 0.410156 4.109375 0.640625 C 4.109375 0.878906 4.019531 1.085938 3.84375 1.265625 C 3.675781 1.429688 3.476562 1.515625 3.25 1.515625 C 3.238281 1.515625 3.234375 1.515625 3.234375 1.515625 C 2.660156 1.484375 2.085938 1.46875 1.515625 1.46875 C 1.285156 1.488281 1.082031 1.414062 0.90625 1.25 C 0.738281 1.082031 0.648438 0.878906 0.640625 0.640625 C 0.640625 0.410156 0.71875 0.210938 0.875 0.046875 C 1.03125 -0.128906 1.226562 -0.226562 1.46875 -0.25 C 1.414062 -1.125 1.375 -1.976562 1.34375 -2.8125 C 1.21875 -6.207031 1.160156 -9.632812 1.171875 -13.09375 L 1.15625 -13.09375 C 0.925781 -13.09375 0.726562 -13.175781 0.5625 -13.34375 C 0.394531 -13.507812 0.304688 -13.710938 0.296875 -13.953125 C 0.273438 -14.179688 0.351562 -14.378906 0.53125 -14.546875 C 0.695312 -14.742188 0.90625 -14.84375 1.15625 -14.84375 L 2.859375 -14.84375 C 3.085938 -14.84375 3.285156 -14.757812 3.453125 -14.59375 C 3.617188 -14.425781 3.707031 -14.222656 3.71875 -13.984375 C 3.71875 -13.753906 3.640625 -13.554688 3.484375 -13.390625 C 3.316406 -13.210938 3.117188 -13.113281 2.890625 -13.09375 C 2.890625 -13.082031 2.890625 -13.0625 2.890625 -13.03125 C 2.890625 -13.007812 2.890625 -12.984375 2.890625 -12.953125 C 3.523438 -13.378906 4.234375 -13.597656 5.015625 -13.609375 C 5.835938 -13.640625 6.601562 -13.457031 7.3125 -13.0625 C 8.03125 -12.675781 8.5625 -12.15625 8.90625 -11.5 Z M 7.265625 -7.9375 C 7.515625 -8.351562 7.65625 -8.851562 7.6875 -9.4375 C 7.71875 -10.03125 7.5625 -10.550781 7.21875 -11 C 6.957031 -11.320312 6.601562 -11.5625 6.15625 -11.71875 C 5.707031 -11.882812 5.253906 -11.9375 4.796875 -11.875 C 4.367188 -11.820312 3.957031 -11.640625 3.5625 -11.328125 C 3.175781 -11.023438 2.957031 -10.628906 2.90625 -10.140625 C 2.90625 -10.117188 2.898438 -10.09375 2.890625 -10.0625 C 2.898438 -9.65625 2.90625 -9.25 2.90625 -8.84375 C 2.90625 -8.445312 2.914062 -8.050781 2.9375 -7.65625 C 2.9375 -7.625 2.945312 -7.601562 2.96875 -7.59375 C 3.03125 -7.375 3.132812 -7.210938 3.28125 -7.109375 C 3.425781 -7.003906 3.546875 -6.925781 3.640625 -6.875 C 4.035156 -6.71875 4.507812 -6.644531 5.0625 -6.65625 C 5.550781 -6.675781 5.960938 -6.785156 6.296875 -6.984375 C 6.703125 -7.191406 7.023438 -7.507812 7.265625 -7.9375 Z M 7.265625 -7.9375 "/></g></g><g style="fill:#e14f19;fill-opacity:1;"><g transform="translate(198.098678, 120.863736)"><path style="stroke:none" d="M 8.625 -12.53125 C 8.851562 -12.53125 9.046875 -12.445312 9.203125 -12.28125 C 9.367188 -12.125 9.457031 -11.929688 9.46875 -11.703125 C 9.488281 -11.472656 9.414062 -11.269531 9.25 -11.09375 C 9.101562 -10.945312 8.941406 -10.859375 8.765625 -10.828125 C 8.453125 -9.878906 8.125 -8.945312 7.78125 -8.03125 C 6.625 -4.8125 5.28125 -1.65625 3.75 1.4375 C 3.957031 1.601562 4.070312 1.828125 4.09375 2.109375 C 4.09375 2.335938 4 2.539062 3.8125 2.71875 C 3.632812 2.894531 3.429688 2.976562 3.203125 2.96875 C 2.710938 2.925781 2.234375 2.941406 1.765625 3.015625 C 1.734375 3.015625 1.707031 3.015625 1.6875 3.015625 C 1.488281 3.015625 1.300781 2.929688 1.125 2.765625 C 0.957031 2.617188 0.867188 2.421875 0.859375 2.171875 C 0.835938 1.929688 0.921875 1.722656 1.109375 1.546875 C 1.203125 1.460938 1.296875 1.40625 1.390625 1.375 C 1.492188 1.34375 1.59375 1.316406 1.6875 1.296875 C 1.75 1.273438 1.820312 1.265625 1.90625 1.265625 C 2.382812 0.335938 2.832031 -0.582031 3.25 -1.5 C 3.675781 -2.40625 4.09375 -3.347656 4.5 -4.328125 C 4.03125 -5.148438 3.570312 -5.96875 3.125 -6.78125 C 2.675781 -7.59375 2.226562 -8.398438 1.78125 -9.203125 C 1.65625 -9.460938 1.519531 -9.722656 1.375 -9.984375 C 1.226562 -10.242188 1.082031 -10.503906 0.9375 -10.765625 C 0.914062 -10.765625 0.894531 -10.765625 0.875 -10.765625 C 0.863281 -10.765625 0.847656 -10.765625 0.828125 -10.765625 C 0.597656 -10.765625 0.394531 -10.847656 0.21875 -11.015625 C 0.0507812 -11.179688 -0.03125 -11.382812 -0.03125 -11.625 C -0.0390625 -11.851562 0.0351562 -12.050781 0.203125 -12.21875 C 0.378906 -12.414062 0.585938 -12.515625 0.828125 -12.515625 C 0.972656 -12.515625 1.125 -12.507812 1.28125 -12.5 C 1.4375 -12.488281 1.585938 -12.484375 1.734375 -12.484375 C 1.898438 -12.484375 2.054688 -12.484375 2.203125 -12.484375 C 2.347656 -12.484375 2.492188 -12.484375 2.640625 -12.484375 C 2.890625 -12.484375 3.09375 -12.398438 3.25 -12.234375 C 3.414062 -12.078125 3.507812 -11.875 3.53125 -11.625 C 3.53125 -11.394531 3.445312 -11.203125 3.28125 -11.046875 C 3.164062 -10.929688 3.035156 -10.847656 2.890625 -10.796875 L 3.1875 -10.28125 C 3.53125 -9.625 3.878906 -8.96875 4.234375 -8.3125 C 4.597656 -7.664062 4.96875 -7.015625 5.34375 -6.359375 C 5.90625 -7.847656 6.441406 -9.34375 6.953125 -10.84375 C 6.546875 -10.957031 6.332031 -11.226562 6.3125 -11.65625 C 6.300781 -11.882812 6.375 -12.085938 6.53125 -12.265625 C 6.71875 -12.441406 6.929688 -12.53125 7.171875 -12.53125 Z M 8.625 -12.53125 "/></g></g><g style="fill:#e14f19;fill-opacity:1;"><g transform="translate(210.659431, 120.863736)"><path style="stroke:none" d=""/></g></g><g style="fill:#e14f19;fill-opacity:1;"><g transform="translate(217.98102, 120.863736)"><path style="stroke:none" d="M 9.203125 -11.171875 C 9.597656 -10.429688 9.753906 -9.613281 9.671875 -8.71875 C 9.585938 -7.820312 9.296875 -7.019531 8.796875 -6.3125 C 7.859375 -5.070312 6.566406 -4.503906 4.921875 -4.609375 C 4.347656 -4.640625 3.828125 -4.742188 3.359375 -4.921875 C 3.359375 -4.804688 3.359375 -4.691406 3.359375 -4.578125 C 3.367188 -4.460938 3.375 -4.34375 3.375 -4.21875 C 3.519531 -4.195312 3.640625 -4.140625 3.734375 -4.046875 C 3.828125 -3.960938 3.890625 -3.882812 3.921875 -3.8125 C 4.035156 -3.632812 4.066406 -3.414062 4.015625 -3.15625 C 3.953125 -2.945312 3.8125 -2.773438 3.59375 -2.640625 C 3.476562 -2.554688 3.34375 -2.515625 3.1875 -2.515625 C 3.15625 -2.515625 3.128906 -2.515625 3.109375 -2.515625 C 2.597656 -2.585938 2.097656 -2.613281 1.609375 -2.59375 C 1.398438 -2.582031 1.207031 -2.648438 1.03125 -2.796875 C 0.851562 -2.972656 0.753906 -3.179688 0.734375 -3.421875 C 0.710938 -3.648438 0.785156 -3.847656 0.953125 -4.015625 C 1.128906 -4.191406 1.332031 -4.289062 1.5625 -4.3125 C 1.613281 -4.3125 1.648438 -4.3125 1.671875 -4.3125 C 1.648438 -4.75 1.628906 -5.179688 1.609375 -5.609375 C 1.597656 -6.046875 1.582031 -6.484375 1.5625 -6.921875 C 1.550781 -6.960938 1.550781 -7.003906 1.5625 -7.046875 L 1.546875 -7.390625 C 1.410156 -11.335938 1.351562 -15.328125 1.375 -19.359375 L 1.34375 -19.359375 C 1.113281 -19.359375 0.914062 -19.441406 0.75 -19.609375 C 0.59375 -19.773438 0.503906 -19.976562 0.484375 -20.21875 C 0.484375 -20.445312 0.566406 -20.644531 0.734375 -20.8125 C 0.898438 -21.007812 1.101562 -21.109375 1.34375 -21.109375 L 3.0625 -21.109375 C 3.289062 -21.109375 3.484375 -21.023438 3.640625 -20.859375 C 3.804688 -20.691406 3.898438 -20.488281 3.921875 -20.25 C 3.921875 -20.019531 3.835938 -19.820312 3.671875 -19.65625 C 3.503906 -19.476562 3.304688 -19.378906 3.078125 -19.359375 C 3.078125 -18.285156 3.078125 -17.300781 3.078125 -16.40625 C 3.097656 -15.25 3.117188 -13.972656 3.140625 -12.578125 C 3.785156 -13.003906 4.507812 -13.234375 5.3125 -13.265625 C 6.125 -13.296875 6.890625 -13.113281 7.609375 -12.71875 C 8.328125 -12.332031 8.859375 -11.816406 9.203125 -11.171875 Z M 7.5625 -7.59375 C 7.8125 -8.019531 7.953125 -8.523438 7.984375 -9.109375 C 8.015625 -9.691406 7.859375 -10.195312 7.515625 -10.625 C 7.253906 -10.96875 6.898438 -11.21875 6.453125 -11.375 C 6.003906 -11.539062 5.550781 -11.59375 5.09375 -11.53125 C 4.664062 -11.476562 4.253906 -11.296875 3.859375 -10.984375 C 3.472656 -10.679688 3.253906 -10.285156 3.203125 -9.796875 C 3.203125 -9.773438 3.203125 -9.765625 3.203125 -9.765625 C 3.203125 -9.328125 3.207031 -8.890625 3.21875 -8.453125 C 3.238281 -8.023438 3.257812 -7.597656 3.28125 -7.171875 C 3.375 -6.878906 3.59375 -6.664062 3.9375 -6.53125 C 4.332031 -6.375 4.804688 -6.300781 5.359375 -6.3125 C 5.847656 -6.332031 6.257812 -6.429688 6.59375 -6.609375 C 7 -6.835938 7.320312 -7.164062 7.5625 -7.59375 Z M 7.5625 -7.59375 "/></g></g><g style="fill:#e14f19;fill-opacity:1;"><g transform="translate(231.839323, 120.863736)"><path style="stroke:none" d="M 2.125 -13.25 C 1.820312 -13.25 1.5625 -13.359375 1.34375 -13.578125 C 1.132812 -13.796875 1.019531 -14.0625 1 -14.375 C 0.988281 -14.664062 1.085938 -14.925781 1.296875 -15.15625 C 1.523438 -15.382812 1.800781 -15.5 2.125 -15.5 C 2.4375 -15.5 2.695312 -15.390625 2.90625 -15.171875 C 3.125 -14.960938 3.238281 -14.703125 3.25 -14.390625 C 3.269531 -14.097656 3.175781 -13.835938 2.96875 -13.609375 C 2.738281 -13.367188 2.457031 -13.25 2.125 -13.25 Z M 3.484375 -4.828125 C 3.703125 -4.773438 3.867188 -4.644531 3.984375 -4.4375 C 4.097656 -4.238281 4.132812 -4.015625 4.09375 -3.765625 C 4.039062 -3.535156 3.910156 -3.363281 3.703125 -3.25 C 3.566406 -3.175781 3.414062 -3.140625 3.25 -3.140625 C 3.1875 -3.140625 3.113281 -3.144531 3.03125 -3.15625 C 2.988281 -3.175781 2.914062 -3.191406 2.8125 -3.203125 C 2.613281 -3.222656 2.410156 -3.21875 2.203125 -3.1875 C 2.140625 -3.1875 2.097656 -3.1875 2.078125 -3.1875 C 1.847656 -3.132812 1.632812 -3.15625 1.4375 -3.25 C 1.25 -3.351562 1.113281 -3.523438 1.03125 -3.765625 C 0.96875 -3.992188 1 -4.21875 1.125 -4.4375 C 1.15625 -4.5 1.210938 -4.566406 1.296875 -4.640625 C 1.378906 -4.710938 1.46875 -4.773438 1.5625 -4.828125 C 1.582031 -5.578125 1.582031 -6.328125 1.5625 -7.078125 C 1.550781 -7.828125 1.535156 -8.578125 1.515625 -9.328125 C 1.503906 -9.554688 1.492188 -9.78125 1.484375 -10 C 1.472656 -10.21875 1.46875 -10.441406 1.46875 -10.671875 C 1.4375 -10.691406 1.394531 -10.703125 1.34375 -10.703125 L 1.328125 -10.71875 L 1.15625 -10.796875 C 0.96875 -10.890625 0.835938 -11.050781 0.765625 -11.28125 C 0.679688 -11.507812 0.703125 -11.738281 0.828125 -11.96875 C 0.878906 -12.050781 0.953125 -12.132812 1.046875 -12.21875 C 1.148438 -12.300781 1.265625 -12.347656 1.390625 -12.359375 C 1.867188 -12.441406 2.300781 -12.46875 2.6875 -12.4375 C 2.832031 -12.4375 2.972656 -12.394531 3.109375 -12.3125 L 3.140625 -12.296875 L 3.28125 -12.1875 C 3.445312 -12.039062 3.53125 -11.835938 3.53125 -11.578125 C 3.539062 -11.347656 3.457031 -11.144531 3.28125 -10.96875 C 3.25 -10.9375 3.21875 -10.90625 3.1875 -10.875 C 3.1875 -10.625 3.1875 -10.367188 3.1875 -10.109375 C 3.195312 -9.847656 3.210938 -9.597656 3.234375 -9.359375 C 3.242188 -8.617188 3.257812 -7.875 3.28125 -7.125 C 3.3125 -6.375 3.3125 -5.625 3.28125 -4.875 C 3.34375 -4.851562 3.410156 -4.835938 3.484375 -4.828125 Z M 3.484375 -4.828125 "/></g></g><g style="fill:#e14f19;fill-opacity:1;"><g transform="translate(240.115713, 120.863736)"><path style="stroke:none" d="M 7.171875 -12.09375 C 7.421875 -12.03125 7.597656 -11.894531 7.703125 -11.6875 C 7.804688 -11.488281 7.828125 -11.273438 7.765625 -11.046875 C 7.691406 -10.796875 7.554688 -10.613281 7.359375 -10.5 C 7.171875 -10.382812 6.960938 -10.363281 6.734375 -10.4375 C 5.898438 -10.65625 5.132812 -10.53125 4.4375 -10.0625 C 3.832031 -9.632812 3.460938 -9.015625 3.328125 -8.203125 C 3.316406 -8.179688 3.3125 -8.171875 3.3125 -8.171875 L 3.40625 -5.125 C 3.457031 -5.101562 3.515625 -5.09375 3.578125 -5.09375 C 3.703125 -5.0625 3.8125 -5.003906 3.90625 -4.921875 C 4 -4.835938 4.066406 -4.765625 4.109375 -4.703125 C 4.222656 -4.503906 4.257812 -4.285156 4.21875 -4.046875 C 4.164062 -3.816406 4.023438 -3.632812 3.796875 -3.5 C 3.679688 -3.414062 3.539062 -3.375 3.375 -3.375 C 3.3125 -3.375 3.25 -3.382812 3.1875 -3.40625 L 3.109375 -3.421875 C 2.785156 -3.460938 2.453125 -3.460938 2.109375 -3.421875 C 1.960938 -3.390625 1.820312 -3.390625 1.6875 -3.421875 L 1.640625 -3.421875 L 1.5 -3.5 C 1.300781 -3.59375 1.160156 -3.765625 1.078125 -4.015625 C 0.992188 -4.242188 1.019531 -4.472656 1.15625 -4.703125 C 1.195312 -4.785156 1.265625 -4.863281 1.359375 -4.9375 C 1.460938 -5.007812 1.570312 -5.0625 1.6875 -5.09375 L 1.5 -11.390625 C 1.28125 -11.367188 1.082031 -11.414062 0.90625 -11.53125 C 0.738281 -11.644531 0.625 -11.800781 0.5625 -12 C 0.476562 -12.226562 0.503906 -12.457031 0.640625 -12.6875 C 0.765625 -12.894531 0.941406 -13.023438 1.171875 -13.078125 C 1.765625 -13.203125 2.335938 -13.242188 2.890625 -13.203125 C 3.117188 -13.160156 3.304688 -13.078125 3.453125 -12.953125 C 3.617188 -12.804688 3.707031 -12.601562 3.71875 -12.34375 C 3.71875 -12.113281 3.640625 -11.910156 3.484375 -11.734375 C 3.398438 -11.648438 3.304688 -11.582031 3.203125 -11.53125 L 3.203125 -11.28125 C 3.316406 -11.363281 3.425781 -11.445312 3.53125 -11.53125 C 4.050781 -11.875 4.632812 -12.097656 5.28125 -12.203125 C 5.925781 -12.304688 6.554688 -12.269531 7.171875 -12.09375 Z M 7.171875 -12.09375 "/></g></g><g style="fill:#e14f19;fill-opacity:1;"><g transform="translate(251.844077, 120.863736)"><path style="stroke:none" d="M 7.640625 -5.484375 C 7.703125 -5.273438 7.671875 -5.054688 7.546875 -4.828125 C 7.441406 -4.609375 7.269531 -4.46875 7.03125 -4.40625 C 6.957031 -4.382812 6.890625 -4.375 6.828125 -4.375 C 6.765625 -4.101562 6.679688 -3.832031 6.578125 -3.5625 C 6.472656 -3.289062 6.3125 -3.039062 6.09375 -2.8125 C 5.59375 -2.269531 4.988281 -2 4.28125 -2 C 4.238281 -2 4.191406 -2 4.140625 -2 C 3.398438 -2.050781 2.820312 -2.332031 2.40625 -2.84375 C 1.988281 -3.363281 1.734375 -3.925781 1.640625 -4.53125 C 1.585938 -4.84375 1.554688 -5.15625 1.546875 -5.46875 C 1.546875 -5.789062 1.550781 -6.109375 1.5625 -6.421875 C 1.5625 -6.546875 1.5625 -6.664062 1.5625 -6.78125 L 1.640625 -12.5625 L 0.4375 -12.5625 C 0.207031 -12.5625 0.015625 -12.644531 -0.140625 -12.8125 C -0.304688 -12.988281 -0.390625 -13.195312 -0.390625 -13.4375 C -0.390625 -13.65625 -0.328125 -13.84375 -0.203125 -14 C -0.0351562 -14.195312 0.175781 -14.296875 0.4375 -14.296875 L 1.671875 -14.296875 L 1.71875 -18 C 1.71875 -18.320312 1.851562 -18.554688 2.125 -18.703125 C 2.4375 -18.878906 2.738281 -18.878906 3.03125 -18.703125 C 3.289062 -18.546875 3.421875 -18.300781 3.421875 -17.96875 L 3.375 -14.296875 L 5.453125 -14.296875 C 5.703125 -14.296875 5.90625 -14.210938 6.0625 -14.046875 C 6.226562 -13.890625 6.3125 -13.6875 6.3125 -13.4375 C 6.3125 -13.195312 6.226562 -12.992188 6.0625 -12.828125 C 5.90625 -12.660156 5.703125 -12.578125 5.453125 -12.578125 L 3.359375 -12.578125 L 3.328125 -9.421875 C 3.328125 -9.210938 3.320312 -9.003906 3.3125 -8.796875 C 3.3125 -8.597656 3.3125 -8.390625 3.3125 -8.171875 C 3.289062 -7.722656 3.273438 -7.269531 3.265625 -6.8125 C 3.253906 -6.351562 3.257812 -5.894531 3.28125 -5.4375 C 3.28125 -5.300781 3.300781 -5.109375 3.34375 -4.859375 C 3.382812 -4.609375 3.460938 -4.367188 3.578125 -4.140625 C 3.703125 -3.910156 3.890625 -3.769531 4.140625 -3.71875 C 4.453125 -3.664062 4.703125 -3.78125 4.890625 -4.0625 C 4.992188 -4.175781 5.066406 -4.3125 5.109375 -4.46875 C 5.148438 -4.632812 5.175781 -4.8125 5.1875 -5 C 5.207031 -5.082031 5.222656 -5.15625 5.234375 -5.21875 C 5.234375 -5.21875 5.234375 -5.222656 5.234375 -5.234375 C 5.054688 -5.347656 4.925781 -5.515625 4.84375 -5.734375 C 4.78125 -5.941406 4.816406 -6.160156 4.953125 -6.390625 C 5.046875 -6.597656 5.210938 -6.738281 5.453125 -6.8125 C 5.703125 -6.875 5.925781 -6.835938 6.125 -6.703125 L 7.25 -5.96875 C 7.425781 -5.851562 7.554688 -5.691406 7.640625 -5.484375 Z M 7.640625 -5.484375 "/></g></g><g style="fill:#e14f19;fill-opacity:1;"><g transform="translate(263.474506, 120.863736)"><path style="stroke:none" d="M 7.5 -4.328125 L 7.5 -4.359375 L 7.515625 -4.328125 C 7.515625 -4.328125 7.507812 -4.328125 7.5 -4.328125 Z M 9.9375 -5.609375 C 10.070312 -5.410156 10.101562 -5.191406 10.03125 -4.953125 C 10 -4.753906 9.910156 -4.601562 9.765625 -4.5 C 9.617188 -4.40625 9.457031 -4.347656 9.28125 -4.328125 C 9.050781 -4.316406 8.804688 -4.3125 8.546875 -4.3125 C 8.285156 -4.3125 8.03125 -4.316406 7.78125 -4.328125 C 7.695312 -4.328125 7.601562 -4.335938 7.5 -4.359375 L 7.5 -4.375 L 7.5 -4.359375 C 7.28125 -4.390625 7.066406 -4.457031 6.859375 -4.5625 C 6.660156 -4.664062 6.515625 -4.800781 6.421875 -4.96875 C 6.335938 -5.144531 6.359375 -5.347656 6.484375 -5.578125 C 6.554688 -5.679688 6.640625 -5.769531 6.734375 -5.84375 C 6.828125 -5.925781 6.929688 -5.976562 7.046875 -6 C 7.117188 -6 7.171875 -6.003906 7.203125 -6.015625 C 7.210938 -6.410156 7.21875 -6.8125 7.21875 -7.21875 C 7.21875 -7.625 7.21875 -8.035156 7.21875 -8.453125 C 7.21875 -8.660156 7.210938 -8.867188 7.203125 -9.078125 C 7.203125 -9.296875 7.203125 -9.507812 7.203125 -9.71875 C 7.179688 -9.800781 7.171875 -9.914062 7.171875 -10.0625 C 7.171875 -10.238281 7.164062 -10.410156 7.15625 -10.578125 C 7.15625 -10.753906 7.144531 -10.925781 7.125 -11.09375 C 7.0625 -11.46875 6.914062 -11.742188 6.6875 -11.921875 C 6.507812 -12.066406 6.238281 -12.175781 5.875 -12.25 C 5.175781 -12.351562 4.539062 -12.195312 3.96875 -11.78125 C 3.53125 -11.4375 3.285156 -11.007812 3.234375 -10.5 L 3.234375 -10.140625 C 3.234375 -10.117188 3.234375 -10.101562 3.234375 -10.09375 C 3.234375 -8.144531 3.238281 -6.203125 3.25 -4.265625 L 3.421875 -4.265625 C 3.671875 -4.242188 3.875 -4.148438 4.03125 -3.984375 C 4.195312 -3.828125 4.28125 -3.632812 4.28125 -3.40625 C 4.300781 -3.175781 4.222656 -2.972656 4.046875 -2.796875 C 3.878906 -2.609375 3.671875 -2.515625 3.421875 -2.515625 L 1.59375 -2.578125 C 1.363281 -2.585938 1.164062 -2.671875 1 -2.828125 C 0.84375 -2.984375 0.765625 -3.179688 0.765625 -3.421875 C 0.742188 -3.648438 0.820312 -3.859375 1 -4.046875 C 1.144531 -4.203125 1.328125 -4.289062 1.546875 -4.3125 C 1.523438 -5.375 1.515625 -6.335938 1.515625 -7.203125 C 1.515625 -7.691406 1.507812 -8.175781 1.5 -8.65625 C 1.5 -9.132812 1.503906 -9.617188 1.515625 -10.109375 C 1.503906 -10.304688 1.503906 -10.492188 1.515625 -10.671875 C 1.515625 -13.484375 1.554688 -16.300781 1.640625 -19.125 L 1.5625 -19.09375 C 1.351562 -19.082031 1.164062 -19.15625 1 -19.3125 C 0.800781 -19.476562 0.695312 -19.691406 0.6875 -19.953125 C 0.664062 -20.203125 0.742188 -20.40625 0.921875 -20.5625 C 1.109375 -20.726562 1.304688 -20.820312 1.515625 -20.84375 C 1.910156 -20.851562 2.273438 -20.867188 2.609375 -20.890625 C 2.941406 -20.921875 3.269531 -20.9375 3.59375 -20.9375 C 3.84375 -20.9375 4.046875 -20.851562 4.203125 -20.6875 C 4.367188 -20.519531 4.460938 -20.316406 4.484375 -20.078125 C 4.484375 -19.867188 4.398438 -19.671875 4.234375 -19.484375 C 4.066406 -19.304688 3.863281 -19.21875 3.625 -19.21875 C 3.5625 -19.21875 3.476562 -19.210938 3.375 -19.203125 C 3.363281 -18.660156 3.347656 -18.140625 3.328125 -17.640625 C 3.316406 -17.140625 3.3125 -16.65625 3.3125 -16.1875 C 3.289062 -15.738281 3.273438 -15.28125 3.265625 -14.8125 C 3.253906 -14.351562 3.25 -13.875 3.25 -13.375 C 3.78125 -13.695312 4.375 -13.890625 5.03125 -13.953125 C 5.6875 -14.015625 6.300781 -13.941406 6.875 -13.734375 C 7.851562 -13.378906 8.472656 -12.71875 8.734375 -11.75 C 8.804688 -11.488281 8.847656 -11.226562 8.859375 -10.96875 C 8.878906 -10.707031 8.890625 -10.445312 8.890625 -10.1875 L 8.90625 -9.9375 C 8.90625 -9.695312 8.910156 -9.453125 8.921875 -9.203125 C 8.929688 -8.960938 8.9375 -8.726562 8.9375 -8.5 C 8.957031 -8.070312 8.960938 -7.648438 8.953125 -7.234375 C 8.941406 -6.816406 8.9375 -6.421875 8.9375 -6.046875 C 9.082031 -6.046875 9.238281 -6.03125 9.40625 -6 C 9.550781 -5.976562 9.664062 -5.921875 9.75 -5.828125 C 9.84375 -5.734375 9.90625 -5.660156 9.9375 -5.609375 Z M 9.9375 -5.609375 "/></g></g><g style="fill:#e14f19;fill-opacity:1;"><g transform="translate(277.136771, 120.863736)"><path style="stroke:none" d="M 9.9375 -3.8125 C 10.070312 -3.632812 10.101562 -3.414062 10.03125 -3.15625 C 9.988281 -2.945312 9.859375 -2.773438 9.640625 -2.640625 C 9.515625 -2.554688 9.378906 -2.515625 9.234375 -2.515625 C 9.203125 -2.515625 9.164062 -2.515625 9.125 -2.515625 C 8.632812 -2.585938 8.144531 -2.613281 7.65625 -2.59375 C 7.4375 -2.582031 7.242188 -2.648438 7.078125 -2.796875 C 6.898438 -2.953125 6.800781 -3.160156 6.78125 -3.421875 C 6.757812 -3.648438 6.832031 -3.847656 7 -4.015625 C 7.164062 -4.191406 7.367188 -4.289062 7.609375 -4.3125 C 7.660156 -4.3125 7.6875 -4.3125 7.6875 -4.3125 C 7.6875 -4.40625 7.6875 -4.492188 7.6875 -4.578125 C 7.6875 -4.671875 7.6875 -4.769531 7.6875 -4.875 C 7.082031 -4.53125 6.445312 -4.320312 5.78125 -4.25 C 5.113281 -4.1875 4.46875 -4.265625 3.84375 -4.484375 C 3.09375 -4.753906 2.445312 -5.179688 1.90625 -5.765625 C 1.375 -6.359375 1.015625 -7.03125 0.828125 -7.78125 C 0.648438 -8.570312 0.675781 -9.359375 0.90625 -10.140625 C 1.144531 -10.921875 1.5625 -11.582031 2.15625 -12.125 C 2.726562 -12.65625 3.398438 -13.003906 4.171875 -13.171875 C 4.953125 -13.347656 5.738281 -13.332031 6.53125 -13.125 C 6.863281 -13.03125 7.175781 -12.898438 7.46875 -12.734375 C 7.414062 -15.003906 7.390625 -17.210938 7.390625 -19.359375 C 7.160156 -19.359375 6.960938 -19.441406 6.796875 -19.609375 C 6.640625 -19.773438 6.550781 -19.976562 6.53125 -20.21875 C 6.519531 -20.445312 6.59375 -20.644531 6.75 -20.8125 C 6.9375 -21.007812 7.148438 -21.109375 7.390625 -21.109375 L 9.078125 -21.109375 C 9.304688 -21.109375 9.503906 -21.023438 9.671875 -20.859375 C 9.847656 -20.691406 9.945312 -20.488281 9.96875 -20.25 C 9.96875 -20.019531 9.882812 -19.816406 9.71875 -19.640625 C 9.550781 -19.472656 9.351562 -19.378906 9.125 -19.359375 C 9.125 -18.285156 9.125 -17.300781 9.125 -16.40625 C 9.164062 -12.351562 9.265625 -8.289062 9.421875 -4.21875 C 9.566406 -4.195312 9.679688 -4.140625 9.765625 -4.046875 C 9.847656 -3.960938 9.90625 -3.882812 9.9375 -3.8125 Z M 7.59375 -6.953125 C 7.59375 -6.953125 7.59375 -6.960938 7.59375 -6.984375 L 7.59375 -7.078125 C 7.59375 -7.191406 7.59375 -7.296875 7.59375 -7.390625 C 7.570312 -7.835938 7.550781 -8.285156 7.53125 -8.734375 C 7.519531 -9.191406 7.515625 -9.648438 7.515625 -10.109375 C 7.316406 -10.859375 6.726562 -11.332031 5.75 -11.53125 C 5.570312 -11.5625 5.394531 -11.578125 5.21875 -11.578125 C 4.332031 -11.578125 3.617188 -11.253906 3.078125 -10.609375 C 2.753906 -10.210938 2.550781 -9.757812 2.46875 -9.25 C 2.382812 -8.75 2.4375 -8.269531 2.625 -7.8125 C 2.800781 -7.351562 3.082031 -6.957031 3.46875 -6.625 C 3.863281 -6.300781 4.304688 -6.09375 4.796875 -6 C 5.285156 -5.914062 5.78125 -5.953125 6.28125 -6.109375 C 6.78125 -6.273438 7.21875 -6.554688 7.59375 -6.953125 Z M 7.59375 -6.953125 "/></g></g><g style="fill:#e14f19;fill-opacity:1;"><g transform="translate(291.386787, 120.863736)"><path style="stroke:none" d="M 7.15625 -3.546875 C 7.3125 -3.398438 7.398438 -3.195312 7.421875 -2.9375 C 7.429688 -2.707031 7.347656 -2.503906 7.171875 -2.328125 C 7.078125 -2.222656 6.972656 -2.15625 6.859375 -2.125 C 6.753906 -2.09375 6.664062 -2.078125 6.59375 -2.078125 L 5.484375 -1.953125 C 5.460938 -1.953125 5.445312 -1.953125 5.4375 -1.953125 C 5.300781 -1.953125 5.1875 -1.976562 5.09375 -2.03125 C 5 -2.09375 4.925781 -2.148438 4.875 -2.203125 C 4.707031 -2.347656 4.617188 -2.550781 4.609375 -2.8125 C 4.585938 -3.039062 4.664062 -3.242188 4.84375 -3.421875 C 4.925781 -3.503906 5.007812 -3.5625 5.09375 -3.59375 C 5.175781 -3.625 5.257812 -3.648438 5.34375 -3.671875 C 5.34375 -3.703125 5.34375 -3.726562 5.34375 -3.75 C 4.320312 -3.457031 3.359375 -3.554688 2.453125 -4.046875 C 1.941406 -4.304688 1.535156 -4.675781 1.234375 -5.15625 C 0.929688 -5.632812 0.78125 -6.144531 0.78125 -6.6875 C 0.78125 -7.238281 0.925781 -7.753906 1.21875 -8.234375 C 1.519531 -8.722656 1.921875 -9.113281 2.421875 -9.40625 C 2.898438 -9.675781 3.4375 -9.820312 4.03125 -9.84375 C 4.625 -9.875 5.175781 -9.789062 5.6875 -9.59375 C 5.6875 -9.78125 5.6875 -9.960938 5.6875 -10.140625 C 5.6875 -10.316406 5.675781 -10.503906 5.65625 -10.703125 C 5.65625 -10.703125 5.644531 -10.722656 5.625 -10.765625 C 5.625 -10.785156 5.625 -10.8125 5.625 -10.84375 C 5.625 -10.863281 5.625 -10.875 5.625 -10.875 L 5.578125 -10.96875 C 5.367188 -11.320312 5.0625 -11.578125 4.65625 -11.734375 C 4.25 -11.859375 3.84375 -11.828125 3.4375 -11.640625 C 3.039062 -11.453125 2.769531 -11.160156 2.625 -10.765625 C 2.519531 -10.546875 2.367188 -10.378906 2.171875 -10.265625 C 1.984375 -10.160156 1.78125 -10.140625 1.5625 -10.203125 C 1.320312 -10.273438 1.132812 -10.429688 1 -10.671875 C 0.90625 -10.890625 0.898438 -11.101562 0.984375 -11.3125 C 1.285156 -12.113281 1.816406 -12.71875 2.578125 -13.125 C 3.335938 -13.53125 4.128906 -13.628906 4.953125 -13.421875 C 5.472656 -13.285156 5.976562 -13.015625 6.46875 -12.609375 C 6.957031 -12.203125 7.242188 -11.703125 7.328125 -11.109375 C 7.367188 -10.734375 7.390625 -10.359375 7.390625 -9.984375 C 7.390625 -9.609375 7.390625 -9.234375 7.390625 -8.859375 L 7.390625 -8.734375 C 7.347656 -6.972656 7.234375 -5.269531 7.046875 -3.625 C 7.078125 -3.601562 7.113281 -3.578125 7.15625 -3.546875 Z M 5.515625 -5.734375 C 5.546875 -6.234375 5.578125 -6.769531 5.609375 -7.34375 C 5.609375 -7.363281 5.609375 -7.394531 5.609375 -7.4375 L 5.578125 -7.5 C 5.578125 -7.5 5.570312 -7.519531 5.5625 -7.5625 L 5.5625 -7.59375 C 5.5625 -7.601562 5.546875 -7.625 5.515625 -7.65625 L 5.515625 -7.6875 C 5.492188 -7.707031 5.457031 -7.738281 5.40625 -7.78125 C 5.375 -7.8125 5.359375 -7.828125 5.359375 -7.828125 L 5.34375 -7.859375 C 5.300781 -7.878906 5.273438 -7.894531 5.265625 -7.90625 C 5.210938 -7.925781 5.171875 -7.953125 5.140625 -7.984375 L 5.125 -7.984375 C 4.96875 -8.035156 4.796875 -8.082031 4.609375 -8.125 L 4.546875 -8.125 C 4.515625 -8.125 4.476562 -8.132812 4.4375 -8.15625 C 4.363281 -8.15625 4.296875 -8.15625 4.234375 -8.15625 C 4.148438 -8.15625 4.066406 -8.144531 3.984375 -8.125 L 3.84375 -8.109375 C 3.757812 -8.085938 3.675781 -8.070312 3.59375 -8.0625 C 3.5625 -8.039062 3.53125 -8.019531 3.5 -8 L 3.453125 -8 C 3.335938 -7.9375 3.222656 -7.863281 3.109375 -7.78125 C 3.109375 -7.78125 3.082031 -7.765625 3.03125 -7.734375 L 3.015625 -7.71875 C 2.984375 -7.695312 2.945312 -7.671875 2.90625 -7.640625 C 2.875 -7.585938 2.828125 -7.53125 2.765625 -7.46875 L 2.75 -7.4375 C 2.726562 -7.40625 2.707031 -7.375 2.6875 -7.34375 C 2.675781 -7.3125 2.644531 -7.253906 2.59375 -7.171875 C 2.59375 -7.160156 2.59375 -7.144531 2.59375 -7.125 C 2.582031 -7.09375 2.566406 -7.0625 2.546875 -7.03125 C 2.546875 -6.976562 2.535156 -6.921875 2.515625 -6.859375 L 2.515625 -6.8125 C 2.503906 -6.769531 2.5 -6.734375 2.5 -6.703125 C 2.5 -6.671875 2.503906 -6.625 2.515625 -6.5625 L 2.515625 -6.46875 C 2.535156 -6.445312 2.546875 -6.410156 2.546875 -6.359375 C 2.546875 -6.359375 2.554688 -6.335938 2.578125 -6.296875 C 2.585938 -6.265625 2.59375 -6.238281 2.59375 -6.21875 C 2.625 -6.15625 2.65625 -6.109375 2.6875 -6.078125 C 2.6875 -6.054688 2.695312 -6.035156 2.71875 -6.015625 C 2.738281 -6.003906 2.753906 -5.988281 2.765625 -5.96875 C 2.828125 -5.894531 2.882812 -5.832031 2.9375 -5.78125 C 2.96875 -5.75 2.992188 -5.722656 3.015625 -5.703125 C 3.054688 -5.671875 3.09375 -5.640625 3.125 -5.609375 C 3.164062 -5.585938 3.207031 -5.570312 3.25 -5.5625 C 3.289062 -5.539062 3.332031 -5.523438 3.375 -5.515625 C 3.40625 -5.492188 3.429688 -5.472656 3.453125 -5.453125 C 3.546875 -5.421875 3.648438 -5.390625 3.765625 -5.359375 C 3.867188 -5.347656 3.941406 -5.34375 3.984375 -5.34375 C 4.140625 -5.320312 4.253906 -5.3125 4.328125 -5.3125 C 4.359375 -5.3125 4.410156 -5.320312 4.484375 -5.34375 C 4.515625 -5.34375 4.554688 -5.34375 4.609375 -5.34375 C 4.722656 -5.351562 4.835938 -5.382812 4.953125 -5.4375 C 5.046875 -5.445312 5.117188 -5.472656 5.171875 -5.515625 C 5.285156 -5.554688 5.398438 -5.617188 5.515625 -5.703125 Z M 5.515625 -5.734375 "/></g></g><g style="fill:#e14f19;fill-opacity:1;"><g transform="translate(303.286526, 120.863736)"><path style="stroke:none" d="M 8.625 -12.53125 C 8.851562 -12.53125 9.046875 -12.445312 9.203125 -12.28125 C 9.367188 -12.125 9.457031 -11.929688 9.46875 -11.703125 C 9.488281 -11.472656 9.414062 -11.269531 9.25 -11.09375 C 9.101562 -10.945312 8.941406 -10.859375 8.765625 -10.828125 C 8.453125 -9.878906 8.125 -8.945312 7.78125 -8.03125 C 6.625 -4.8125 5.28125 -1.65625 3.75 1.4375 C 3.957031 1.601562 4.070312 1.828125 4.09375 2.109375 C 4.09375 2.335938 4 2.539062 3.8125 2.71875 C 3.632812 2.894531 3.429688 2.976562 3.203125 2.96875 C 2.710938 2.925781 2.234375 2.941406 1.765625 3.015625 C 1.734375 3.015625 1.707031 3.015625 1.6875 3.015625 C 1.488281 3.015625 1.300781 2.929688 1.125 2.765625 C 0.957031 2.617188 0.867188 2.421875 0.859375 2.171875 C 0.835938 1.929688 0.921875 1.722656 1.109375 1.546875 C 1.203125 1.460938 1.296875 1.40625 1.390625 1.375 C 1.492188 1.34375 1.59375 1.316406 1.6875 1.296875 C 1.75 1.273438 1.820312 1.265625 1.90625 1.265625 C 2.382812 0.335938 2.832031 -0.582031 3.25 -1.5 C 3.675781 -2.40625 4.09375 -3.347656 4.5 -4.328125 C 4.03125 -5.148438 3.570312 -5.96875 3.125 -6.78125 C 2.675781 -7.59375 2.226562 -8.398438 1.78125 -9.203125 C 1.65625 -9.460938 1.519531 -9.722656 1.375 -9.984375 C 1.226562 -10.242188 1.082031 -10.503906 0.9375 -10.765625 C 0.914062 -10.765625 0.894531 -10.765625 0.875 -10.765625 C 0.863281 -10.765625 0.847656 -10.765625 0.828125 -10.765625 C 0.597656 -10.765625 0.394531 -10.847656 0.21875 -11.015625 C 0.0507812 -11.179688 -0.03125 -11.382812 -0.03125 -11.625 C -0.0390625 -11.851562 0.0351562 -12.050781 0.203125 -12.21875 C 0.378906 -12.414062 0.585938 -12.515625 0.828125 -12.515625 C 0.972656 -12.515625 1.125 -12.507812 1.28125 -12.5 C 1.4375 -12.488281 1.585938 -12.484375 1.734375 -12.484375 C 1.898438 -12.484375 2.054688 -12.484375 2.203125 -12.484375 C 2.347656 -12.484375 2.492188 -12.484375 2.640625 -12.484375 C 2.890625 -12.484375 3.09375 -12.398438 3.25 -12.234375 C 3.414062 -12.078125 3.507812 -11.875 3.53125 -11.625 C 3.53125 -11.394531 3.445312 -11.203125 3.28125 -11.046875 C 3.164062 -10.929688 3.035156 -10.847656 2.890625 -10.796875 L 3.1875 -10.28125 C 3.53125 -9.625 3.878906 -8.96875 4.234375 -8.3125 C 4.597656 -7.664062 4.96875 -7.015625 5.34375 -6.359375 C 5.90625 -7.847656 6.441406 -9.34375 6.953125 -10.84375 C 6.546875 -10.957031 6.332031 -11.226562 6.3125 -11.65625 C 6.300781 -11.882812 6.375 -12.085938 6.53125 -12.265625 C 6.71875 -12.441406 6.929688 -12.53125 7.171875 -12.53125 Z M 8.625 -12.53125 "/></g></g><g style="fill:#e14f19;fill-opacity:1;"><g transform="translate(195.515532, 158.519396)"><path style="stroke:none" d="M 1.46875 -16.71875 C 1.257812 -16.707031 1.0625 -16.773438 0.875 -16.921875 C 0.6875 -17.097656 0.59375 -17.316406 0.59375 -17.578125 C 0.59375 -17.804688 0.664062 -18 0.8125 -18.15625 C 0.96875 -18.320312 1.171875 -18.414062 1.421875 -18.4375 C 2.347656 -18.519531 3.257812 -18.519531 4.15625 -18.4375 C 4.550781 -18.40625 4.957031 -18.351562 5.375 -18.28125 C 5.789062 -18.21875 6.203125 -18.125 6.609375 -18 C 7.410156 -17.738281 8.046875 -17.335938 8.515625 -16.796875 C 8.972656 -16.253906 9.316406 -15.601562 9.546875 -14.84375 C 9.972656 -13.46875 9.96875 -12.085938 9.53125 -10.703125 C 9.1875 -9.648438 8.617188 -8.726562 7.828125 -7.9375 C 7.046875 -7.144531 6.132812 -6.570312 5.09375 -6.21875 C 6.5625 -5.070312 7.945312 -3.863281 9.25 -2.59375 L 9.359375 -2.671875 C 9.515625 -2.828125 9.707031 -2.90625 9.9375 -2.90625 C 10.164062 -2.90625 10.363281 -2.828125 10.53125 -2.671875 C 10.707031 -2.503906 10.796875 -2.300781 10.796875 -2.0625 C 10.796875 -1.800781 10.707031 -1.585938 10.53125 -1.421875 L 9.328125 -0.34375 C 9.148438 -0.175781 8.945312 -0.09375 8.71875 -0.09375 C 8.488281 -0.09375 8.289062 -0.175781 8.125 -0.34375 C 7.945312 -0.507812 7.859375 -0.710938 7.859375 -0.953125 C 7.859375 -1.117188 7.898438 -1.273438 7.984375 -1.421875 C 6.640625 -2.722656 5.234375 -3.9375 3.765625 -5.0625 C 3.785156 -4.414062 3.800781 -3.789062 3.8125 -3.1875 C 3.832031 -2.582031 3.851562 -2 3.875 -1.4375 C 4.050781 -1.40625 4.207031 -1.3125 4.34375 -1.15625 C 4.476562 -1.007812 4.546875 -0.828125 4.546875 -0.609375 C 4.566406 -0.378906 4.492188 -0.175781 4.328125 0 C 4.148438 0.175781 3.941406 0.265625 3.703125 0.265625 L 2.25 0.265625 C 2.007812 0.265625 1.804688 0.179688 1.640625 0.015625 C 1.472656 -0.140625 1.382812 -0.34375 1.375 -0.59375 C 1.375 -0.820312 1.453125 -1.015625 1.609375 -1.171875 C 1.765625 -1.335938 1.9375 -1.425781 2.125 -1.4375 C 2.113281 -1.976562 2.101562 -2.507812 2.09375 -3.03125 C 2.082031 -3.550781 2.070312 -4.078125 2.0625 -4.609375 C 1.988281 -8.617188 1.960938 -12.664062 1.984375 -16.75 C 1.804688 -16.726562 1.632812 -16.71875 1.46875 -16.71875 Z M 3.703125 -13.734375 C 3.703125 -11.742188 3.71875 -9.710938 3.75 -7.640625 C 4.757812 -7.804688 5.648438 -8.238281 6.421875 -8.9375 C 6.953125 -9.425781 7.363281 -9.992188 7.65625 -10.640625 C 7.957031 -11.296875 8.117188 -11.976562 8.140625 -12.6875 C 8.160156 -13.40625 8.035156 -14.097656 7.765625 -14.765625 C 7.546875 -15.265625 7.257812 -15.65625 6.90625 -15.9375 C 6.695312 -16.101562 6.457031 -16.226562 6.1875 -16.3125 C 5.914062 -16.40625 5.671875 -16.476562 5.453125 -16.53125 C 4.921875 -16.644531 4.34375 -16.71875 3.71875 -16.75 C 3.707031 -16.238281 3.703125 -15.734375 3.703125 -15.234375 C 3.703125 -14.742188 3.703125 -14.242188 3.703125 -13.734375 Z M 3.703125 -13.734375 "/></g></g><g style="fill:#e14f19;fill-opacity:1;"><g transform="translate(209.544958, 158.519396)"><path style="stroke:none" d="M 9.9375 -9.46875 C 10.21875 -8.5625 10.191406 -7.628906 9.859375 -6.671875 C 9.523438 -5.710938 8.957031 -4.941406 8.15625 -4.359375 C 7.375 -3.773438 6.484375 -3.484375 5.484375 -3.484375 C 4.941406 -3.484375 4.398438 -3.578125 3.859375 -3.765625 C 3.328125 -3.953125 2.832031 -4.234375 2.375 -4.609375 C 1.914062 -5.015625 1.546875 -5.5 1.265625 -6.0625 C 0.992188 -6.632812 0.835938 -7.238281 0.796875 -7.875 C 0.753906 -8.519531 0.835938 -9.132812 1.046875 -9.71875 C 1.378906 -10.632812 1.921875 -11.375 2.671875 -11.9375 C 3.421875 -12.5 4.242188 -12.78125 5.140625 -12.78125 C 5.890625 -12.800781 6.59375 -12.671875 7.25 -12.390625 C 7.90625 -12.109375 8.46875 -11.71875 8.9375 -11.21875 C 9.40625 -10.726562 9.738281 -10.144531 9.9375 -9.46875 Z M 7.59375 -6.125 C 8 -6.582031 8.253906 -7.125 8.359375 -7.75 C 8.460938 -8.375 8.378906 -8.941406 8.109375 -9.453125 C 7.847656 -9.953125 7.453125 -10.34375 6.921875 -10.625 C 6.398438 -10.914062 5.820312 -11.0625 5.1875 -11.0625 C 5.175781 -11.0625 5.164062 -11.0625 5.15625 -11.0625 C 5.144531 -11.0625 5.140625 -11.0625 5.140625 -11.0625 C 4.441406 -11.050781 3.863281 -10.800781 3.40625 -10.3125 C 2.945312 -9.820312 2.660156 -9.289062 2.546875 -8.71875 C 2.429688 -8.113281 2.5 -7.523438 2.75 -6.953125 C 3.007812 -6.378906 3.398438 -5.9375 3.921875 -5.625 C 4.523438 -5.269531 5.164062 -5.132812 5.84375 -5.21875 C 6.519531 -5.3125 7.101562 -5.613281 7.59375 -6.125 Z M 7.59375 -6.125 "/></g></g><g style="fill:#e14f19;fill-opacity:1;"><g transform="translate(223.721469, 158.519396)"><path style="stroke:none" d="M 7.125 -12.734375 C 7.257812 -12.535156 7.285156 -12.316406 7.203125 -12.078125 C 7.148438 -11.859375 7.023438 -11.6875 6.828125 -11.5625 C 6.648438 -11.445312 6.492188 -11.335938 6.359375 -11.234375 C 6.210938 -11.117188 6.078125 -11 5.953125 -10.875 C 5.804688 -10.707031 5.609375 -10.625 5.359375 -10.625 C 5.148438 -10.613281 4.945312 -10.695312 4.75 -10.875 C 4.570312 -11.03125 4.484375 -11.234375 4.484375 -11.484375 C 4.484375 -11.710938 4.5625 -11.910156 4.71875 -12.078125 C 4.539062 -12.203125 4.335938 -12.238281 4.109375 -12.1875 C 3.617188 -12.113281 3.300781 -11.847656 3.15625 -11.390625 C 2.976562 -10.898438 3.007812 -10.40625 3.25 -9.90625 C 3.5 -9.40625 3.785156 -9 4.109375 -8.6875 C 4.179688 -8.601562 4.253906 -8.53125 4.328125 -8.46875 C 4.410156 -8.40625 4.492188 -8.332031 4.578125 -8.25 C 4.984375 -7.90625 5.363281 -7.53125 5.71875 -7.125 C 6.070312 -6.71875 6.296875 -6.210938 6.390625 -5.609375 C 6.484375 -4.890625 6.316406 -4.238281 5.890625 -3.65625 C 5.472656 -3.082031 4.914062 -2.726562 4.21875 -2.59375 C 4.050781 -2.5625 3.894531 -2.546875 3.75 -2.546875 C 3.300781 -2.546875 2.890625 -2.644531 2.515625 -2.84375 C 2.140625 -3.050781 1.859375 -3.328125 1.671875 -3.671875 C 1.628906 -3.671875 1.59375 -3.671875 1.5625 -3.671875 C 1.332031 -3.648438 1.128906 -3.734375 0.953125 -3.921875 C 0.773438 -4.078125 0.6875 -4.28125 0.6875 -4.53125 C 0.6875 -4.757812 0.769531 -4.960938 0.9375 -5.140625 C 1.3125 -5.515625 1.773438 -5.773438 2.328125 -5.921875 C 2.535156 -5.984375 2.75 -5.960938 2.96875 -5.859375 C 3.15625 -5.753906 3.289062 -5.582031 3.375 -5.34375 C 3.445312 -5.113281 3.425781 -4.890625 3.3125 -4.671875 C 3.257812 -4.609375 3.203125 -4.546875 3.140625 -4.484375 C 3.179688 -4.429688 3.265625 -4.378906 3.390625 -4.328125 C 3.523438 -4.285156 3.644531 -4.265625 3.75 -4.265625 C 3.925781 -4.273438 4.097656 -4.332031 4.265625 -4.4375 C 4.441406 -4.550781 4.5625 -4.6875 4.625 -4.84375 C 4.789062 -5.21875 4.734375 -5.582031 4.453125 -5.9375 C 4.179688 -6.289062 3.835938 -6.644531 3.421875 -7 L 3.28125 -7.125 C 2.15625 -8.101562 1.519531 -9.195312 1.375 -10.40625 C 1.289062 -11.132812 1.421875 -11.804688 1.765625 -12.421875 C 2.109375 -13.035156 2.601562 -13.472656 3.25 -13.734375 C 3.695312 -13.910156 4.203125 -13.953125 4.765625 -13.859375 C 5.328125 -13.773438 5.78125 -13.53125 6.125 -13.125 C 6.269531 -13.15625 6.425781 -13.15625 6.59375 -13.125 C 6.800781 -13.070312 6.976562 -12.941406 7.125 -12.734375 Z M 7.125 -12.734375 "/></g></g><g style="fill:#e14f19;fill-opacity:1;"><g transform="translate(234.78882, 158.519396)"><path style="stroke:none" d="M 7.125 -12.734375 C 7.257812 -12.535156 7.285156 -12.316406 7.203125 -12.078125 C 7.148438 -11.859375 7.023438 -11.6875 6.828125 -11.5625 C 6.648438 -11.445312 6.492188 -11.335938 6.359375 -11.234375 C 6.210938 -11.117188 6.078125 -11 5.953125 -10.875 C 5.804688 -10.707031 5.609375 -10.625 5.359375 -10.625 C 5.148438 -10.613281 4.945312 -10.695312 4.75 -10.875 C 4.570312 -11.03125 4.484375 -11.234375 4.484375 -11.484375 C 4.484375 -11.710938 4.5625 -11.910156 4.71875 -12.078125 C 4.539062 -12.203125 4.335938 -12.238281 4.109375 -12.1875 C 3.617188 -12.113281 3.300781 -11.847656 3.15625 -11.390625 C 2.976562 -10.898438 3.007812 -10.40625 3.25 -9.90625 C 3.5 -9.40625 3.785156 -9 4.109375 -8.6875 C 4.179688 -8.601562 4.253906 -8.53125 4.328125 -8.46875 C 4.410156 -8.40625 4.492188 -8.332031 4.578125 -8.25 C 4.984375 -7.90625 5.363281 -7.53125 5.71875 -7.125 C 6.070312 -6.71875 6.296875 -6.210938 6.390625 -5.609375 C 6.484375 -4.890625 6.316406 -4.238281 5.890625 -3.65625 C 5.472656 -3.082031 4.914062 -2.726562 4.21875 -2.59375 C 4.050781 -2.5625 3.894531 -2.546875 3.75 -2.546875 C 3.300781 -2.546875 2.890625 -2.644531 2.515625 -2.84375 C 2.140625 -3.050781 1.859375 -3.328125 1.671875 -3.671875 C 1.628906 -3.671875 1.59375 -3.671875 1.5625 -3.671875 C 1.332031 -3.648438 1.128906 -3.734375 0.953125 -3.921875 C 0.773438 -4.078125 0.6875 -4.28125 0.6875 -4.53125 C 0.6875 -4.757812 0.769531 -4.960938 0.9375 -5.140625 C 1.3125 -5.515625 1.773438 -5.773438 2.328125 -5.921875 C 2.535156 -5.984375 2.75 -5.960938 2.96875 -5.859375 C 3.15625 -5.753906 3.289062 -5.582031 3.375 -5.34375 C 3.445312 -5.113281 3.425781 -4.890625 3.3125 -4.671875 C 3.257812 -4.609375 3.203125 -4.546875 3.140625 -4.484375 C 3.179688 -4.429688 3.265625 -4.378906 3.390625 -4.328125 C 3.523438 -4.285156 3.644531 -4.265625 3.75 -4.265625 C 3.925781 -4.273438 4.097656 -4.332031 4.265625 -4.4375 C 4.441406 -4.550781 4.5625 -4.6875 4.625 -4.84375 C 4.789062 -5.21875 4.734375 -5.582031 4.453125 -5.9375 C 4.179688 -6.289062 3.835938 -6.644531 3.421875 -7 L 3.28125 -7.125 C 2.15625 -8.101562 1.519531 -9.195312 1.375 -10.40625 C 1.289062 -11.132812 1.421875 -11.804688 1.765625 -12.421875 C 2.109375 -13.035156 2.601562 -13.472656 3.25 -13.734375 C 3.695312 -13.910156 4.203125 -13.953125 4.765625 -13.859375 C 5.328125 -13.773438 5.78125 -13.53125 6.125 -13.125 C 6.269531 -13.15625 6.425781 -13.15625 6.59375 -13.125 C 6.800781 -13.070312 6.976562 -12.941406 7.125 -12.734375 Z M 7.125 -12.734375 "/></g></g><g style="fill:#e14f19;fill-opacity:1;"><g transform="translate(245.856172, 158.519396)"><path style="stroke:none" d="M 2.125 -13.25 C 1.820312 -13.25 1.5625 -13.359375 1.34375 -13.578125 C 1.132812 -13.796875 1.019531 -14.0625 1 -14.375 C 0.988281 -14.664062 1.085938 -14.925781 1.296875 -15.15625 C 1.523438 -15.382812 1.800781 -15.5 2.125 -15.5 C 2.4375 -15.5 2.695312 -15.390625 2.90625 -15.171875 C 3.125 -14.960938 3.238281 -14.703125 3.25 -14.390625 C 3.269531 -14.097656 3.175781 -13.835938 2.96875 -13.609375 C 2.738281 -13.367188 2.457031 -13.25 2.125 -13.25 Z M 3.484375 -4.828125 C 3.703125 -4.773438 3.867188 -4.644531 3.984375 -4.4375 C 4.097656 -4.238281 4.132812 -4.015625 4.09375 -3.765625 C 4.039062 -3.535156 3.910156 -3.363281 3.703125 -3.25 C 3.566406 -3.175781 3.414062 -3.140625 3.25 -3.140625 C 3.1875 -3.140625 3.113281 -3.144531 3.03125 -3.15625 C 2.988281 -3.175781 2.914062 -3.191406 2.8125 -3.203125 C 2.613281 -3.222656 2.410156 -3.21875 2.203125 -3.1875 C 2.140625 -3.1875 2.097656 -3.1875 2.078125 -3.1875 C 1.847656 -3.132812 1.632812 -3.15625 1.4375 -3.25 C 1.25 -3.351562 1.113281 -3.523438 1.03125 -3.765625 C 0.96875 -3.992188 1 -4.21875 1.125 -4.4375 C 1.15625 -4.5 1.210938 -4.566406 1.296875 -4.640625 C 1.378906 -4.710938 1.46875 -4.773438 1.5625 -4.828125 C 1.582031 -5.578125 1.582031 -6.328125 1.5625 -7.078125 C 1.550781 -7.828125 1.535156 -8.578125 1.515625 -9.328125 C 1.503906 -9.554688 1.492188 -9.78125 1.484375 -10 C 1.472656 -10.21875 1.46875 -10.441406 1.46875 -10.671875 C 1.4375 -10.691406 1.394531 -10.703125 1.34375 -10.703125 L 1.328125 -10.71875 L 1.15625 -10.796875 C 0.96875 -10.890625 0.835938 -11.050781 0.765625 -11.28125 C 0.679688 -11.507812 0.703125 -11.738281 0.828125 -11.96875 C 0.878906 -12.050781 0.953125 -12.132812 1.046875 -12.21875 C 1.148438 -12.300781 1.265625 -12.347656 1.390625 -12.359375 C 1.867188 -12.441406 2.300781 -12.46875 2.6875 -12.4375 C 2.832031 -12.4375 2.972656 -12.394531 3.109375 -12.3125 L 3.140625 -12.296875 L 3.28125 -12.1875 C 3.445312 -12.039062 3.53125 -11.835938 3.53125 -11.578125 C 3.539062 -11.347656 3.457031 -11.144531 3.28125 -10.96875 C 3.25 -10.9375 3.21875 -10.90625 3.1875 -10.875 C 3.1875 -10.625 3.1875 -10.367188 3.1875 -10.109375 C 3.195312 -9.847656 3.210938 -9.597656 3.234375 -9.359375 C 3.242188 -8.617188 3.257812 -7.875 3.28125 -7.125 C 3.3125 -6.375 3.3125 -5.625 3.28125 -4.875 C 3.34375 -4.851562 3.410156 -4.835938 3.484375 -4.828125 Z M 3.484375 -4.828125 "/></g></g><g style="fill:#e14f19;fill-opacity:1;"><g transform="translate(254.132562, 158.519396)"><path style="stroke:none" d="M 6.984375 -5.1875 C 7.023438 -4.957031 6.984375 -4.753906 6.859375 -4.578125 C 6.546875 -4.171875 6.164062 -3.851562 5.71875 -3.625 C 5.269531 -3.394531 4.800781 -3.28125 4.3125 -3.28125 C 4.195312 -3.28125 4.085938 -3.289062 3.984375 -3.3125 C 3.398438 -3.351562 2.878906 -3.53125 2.421875 -3.84375 C 1.960938 -4.164062 1.617188 -4.582031 1.390625 -5.09375 C 1.234375 -5.5 1.117188 -5.929688 1.046875 -6.390625 C 0.972656 -6.847656 0.925781 -7.269531 0.90625 -7.65625 C 0.851562 -8.601562 0.921875 -9.488281 1.109375 -10.3125 C 1.328125 -11.257812 1.679688 -11.992188 2.171875 -12.515625 C 2.710938 -13.066406 3.375 -13.367188 4.15625 -13.421875 C 4.945312 -13.453125 5.585938 -13.195312 6.078125 -12.65625 C 6.398438 -12.28125 6.59375 -11.863281 6.65625 -11.40625 C 6.71875 -10.945312 6.769531 -10.515625 6.8125 -10.109375 C 6.8125 -10.015625 6.8125 -9.894531 6.8125 -9.75 C 6.820312 -9.5625 6.832031 -9.378906 6.84375 -9.203125 C 6.851562 -9.023438 6.847656 -8.851562 6.828125 -8.6875 C 6.816406 -8.269531 6.644531 -7.960938 6.3125 -7.765625 C 6.1875 -7.679688 6.050781 -7.628906 5.90625 -7.609375 C 5.757812 -7.597656 5.628906 -7.582031 5.515625 -7.5625 L 2.640625 -7.46875 C 2.660156 -7.207031 2.691406 -6.914062 2.734375 -6.59375 C 2.785156 -6.28125 2.878906 -5.992188 3.015625 -5.734375 C 3.210938 -5.304688 3.585938 -5.066406 4.140625 -5.015625 C 4.691406 -4.953125 5.113281 -5.117188 5.40625 -5.515625 C 5.550781 -5.703125 5.726562 -5.820312 5.9375 -5.875 C 6.15625 -5.925781 6.363281 -5.894531 6.5625 -5.78125 C 6.789062 -5.644531 6.929688 -5.445312 6.984375 -5.1875 Z M 2.671875 -9.328125 C 2.671875 -9.273438 2.660156 -9.234375 2.640625 -9.203125 L 5.09375 -9.28125 L 5.09375 -9.59375 C 5.09375 -9.78125 5.085938 -9.972656 5.078125 -10.171875 C 5.066406 -10.378906 5.046875 -10.570312 5.015625 -10.75 C 5.003906 -10.875 4.984375 -10.992188 4.953125 -11.109375 C 4.929688 -11.222656 4.894531 -11.320312 4.84375 -11.40625 C 4.832031 -11.4375 4.828125 -11.453125 4.828125 -11.453125 C 4.828125 -11.453125 4.816406 -11.460938 4.796875 -11.484375 L 4.75 -11.53125 C 4.726562 -11.550781 4.703125 -11.566406 4.671875 -11.578125 C 4.554688 -11.640625 4.441406 -11.671875 4.328125 -11.671875 C 4.179688 -11.691406 4.046875 -11.675781 3.921875 -11.625 C 3.628906 -11.539062 3.382812 -11.332031 3.1875 -11 C 2.9375 -10.539062 2.765625 -9.984375 2.671875 -9.328125 Z M 2.671875 -9.328125 "/></g></g></g></svg>